<svg xmlns="http://www.w3.org/2000/svg" xmlns:xlink="http://www.w3.org/1999/xlink" fill="none" version="1.1" width="27.663818359375" height="27.61132049560547" viewBox="0 0 27.663818359375 27.61132049560547"><g style="mix-blend-mode:passthrough"><g style="mix-blend-mode:passthrough"><path d="M0.408661,10.4896C-1.4273,17.8898,3.09575,25.373,10.5094,27.2036C17.9241,29.0355,25.4206,24.5216,27.2555,17.1213C29.0899,9.721,24.5693,2.23837,17.1542,0.407672C9.74089,-1.42387,2.24308,3.08804,0.408661,10.4896Z" fill="#F6F6F7" fill-opacity="1"/></g><g style="mix-blend-mode:passthrough"><path d="M21.34667149066925,2.2144806747341157L15.90917149066925,2.2144806747341157L15.90917149066925,0.1594906747341156C16.32397149066925,0.22297267473411558,16.73947149066925,0.3044226747341156,17.15457149066925,0.40712667473411557C18.68557149066925,0.7851526747341157,20.09277149066925,1.4048006747341155,21.34667149066925,2.2144806747341157ZM25.529371490669252,6.442780674734116L15.90917149066925,6.442780674734116L15.90917149066925,4.327460674734116L23.88787149066925,4.327460674734116C24.503471490669252,4.979270674734115,25.05277149066925,5.688270674734116,25.529371490669252,6.442780674734116ZM27.30247149066925,10.669790674734116L15.90917149066925,10.669790674734116L15.90917149066925,8.556460674734115L26.62227149066925,8.556460674734115C26.90407149066925,9.239100674734116,27.13267149066925,9.945450674734115,27.30247149066925,10.669790674734116ZM27.61827149066925,14.898390674734115L15.90917149066925,14.898390674734115L15.90917149066925,12.782990674734116L27.62577149066925,12.782990674734116C27.677371490669252,13.480090674734116,27.67597149066925,14.186890674734116,27.61827149066925,14.898390674734115ZM1.0717114906692506,19.126690674734114C0.7852954906692504,18.443890674734117,0.5533044906692505,17.736590674734117,0.3791714906692505,17.011590674734116L27.280871490669252,17.011590674734116C27.27217149066925,17.047990674734116,27.264271490669252,17.084390674734117,27.255071490669252,17.120990674734117C27.082771490669252,17.815990674734117,26.86087149066925,18.485490674734116,26.593371490669252,19.126690674734114L1.0717114906692506,19.126690674734114ZM3.8440914906692507,23.353290674734115C3.2210314906692505,22.702990674734117,2.6641714906692506,21.994790674734116,2.1809314906692503,21.240090674734116L25.48747149066925,21.240090674734116C24.998971490669252,22.003290674734117,24.43997149066925,22.709990674734115,23.82147149066925,23.353290674734115L3.8440914906692507,23.353290674734115ZM6.428241490669251,25.467090674734116C7.65404149066925,26.241990674734115,9.02350149066925,26.836490674734115,10.50977149066925,27.203290674734117C11.32807149066925,27.405490674734114,12.147271490669251,27.530090674734115,12.95987149066925,27.582290674734114L14.71997149066925,27.582290674734114C17.06047149066925,27.432790674734115,19.29517149066925,26.689090674734114,21.22957149066925,25.467090674734116L6.428241490669251,25.467090674734116Z" fill-rule="evenodd" fill="#E62E15" fill-opacity="1"/></g><g style="mix-blend-mode:passthrough"><path d="M14.629335397164338,0.011727129109203815C14.765135397164338,0.028366729109203816,15.773235397164337,0.13876112910920382,15.909135397164338,0.15952512910920383L15.909135397164338,14.916327129109204L0.04512459716433734,14.916327129109204C-0.06799880283566266,13.516527129109203,0.03349709716433734,12.076327129109204,0.37363739716433736,10.637627129109203L0.5517633971643373,10.766227129109204L0.43779939716433736,11.118427129109204L0.7371733971643374,10.901127129109204L1.0358453971643373,11.118427129109204L0.9219533971643373,10.766227129109204L1.2201353971643374,10.550827129109203L0.8521883971643374,10.550827129109203L0.7371733971643374,10.198527129109204L0.6232803971643374,10.550827129109203L0.39395139716433736,10.550827129109203C0.39878439716433733,10.530227129109203,0.40319739716433733,10.509727129109203,0.4083103971643373,10.489327129109205C0.7967123971643373,8.922987129109204,1.4396553971643373,7.486527129109204,2.280765397164337,6.2115771291092035L2.4453053971643373,6.3302871291092035L2.3651753971643372,6.083627129109204C2.423795397164337,5.996867129109204,2.4835453971643373,5.9108771291092035,2.543995397164337,5.825507129109204L2.6307853971643373,5.762727129109204L2.5895253971643375,5.762727129109204C2.8390953971643373,5.415037129109204,3.1037253971643373,5.080437129109204,3.382655397164337,4.759877129109204L3.5019353971643374,4.673947129109203L3.801175397164337,4.889147129109204L3.6871353971643375,4.538947129109204L3.9858853971643375,4.321587129109203L3.7818453971643375,4.321587129109203C4.1898553971643375,3.891477129109204,4.623855397164338,3.488907129109204,5.0813953971643375,3.116407129109204L5.210905397164337,3.210577129109204L5.159845397164338,3.053967129109204C7.149975397164337,1.4571971291092038,9.566965397164337,0.4198161291092038,12.143635397164337,0.10303502910920381L14.629335397164338,0.011727129109203815ZM9.216575397164338,1.4616871291092037L9.330395397164338,1.8117471291092038L9.031935397164338,1.5945871291092037L8.732485397164337,1.8117471291092038L8.846455397164338,1.4616871291092037L8.548195397164337,1.2442471291092039L8.917965397164338,1.2442471291092039L9.031935397164338,0.8940511291092038L9.145825397164337,1.2442471291092039L9.515945397164337,1.2442471291092039L9.216575397164338,1.4616871291092037ZM11.682535397164337,1.2442471291092039L11.797635397164337,0.8940511291092038L11.910535397164338,1.2442471291092039L12.279535397164338,1.2442471291092039L11.980935397164338,1.4616871291092037L12.096035397164338,1.8117471291092038L11.797635397164337,1.5945871291092037L11.497235397164337,1.8117471291092038L11.612135397164337,1.4616871291092037L11.313535397164337,1.2442471291092039L11.682535397164337,1.2442471291092039ZM14.447235397164338,1.2442471291092039L14.562135397164337,0.8940511291092038L14.675135397164338,1.2442471291092039L15.044935397164338,1.2442471291092039L14.746635397164336,1.4616871291092037L14.860735397164337,1.8117471291092038L14.562135397164337,1.5945871291092037L14.262635397164336,1.8117471291092038L14.376635397164337,1.4616871291092037L14.078235397164338,1.2442471291092039L14.447235397164338,1.2442471291092039ZM7.861415397164337,2.888787129109204L7.976435397164337,3.241017129109204L7.675935397164337,3.0235071291092037L7.377475397164337,3.241017129109204L7.492415397164337,2.888787129109204L7.1929753971643375,2.6734471291092037L7.562045397164337,2.6734471291092037L7.675935397164337,2.3232471291092036L7.790885397164337,2.6734471291092037L8.159885397164338,2.6734471291092037L7.861415397164337,2.888787129109204ZM10.740935397164337,3.351507129109204L10.626035397164337,2.999207129109204L10.925435397164337,2.7838771291092037L10.555535397164338,2.7838771291092037L10.441535397164337,2.4316471291092037L10.327635397164338,2.7838771291092037L9.958595397164338,2.7838771291092037L10.256835397164338,2.999207129109204L10.142035397164337,3.351507129109204L10.441535397164337,3.134147129109204L10.740935397164337,3.351507129109204ZM13.391735397164338,2.999207129109204L13.505535397164337,3.351507129109204L13.207035397164338,3.134147129109204L12.907835397164337,3.351507129109204L13.022435397164337,2.999207129109204L12.723235397164338,2.7838771291092037L13.091935397164338,2.7838771291092037L13.207035397164338,2.4316471291092037L13.321135397164337,2.7838771291092037L13.691035397164338,2.7838771291092037L13.391735397164338,2.999207129109204ZM6.566795397164337,4.889237129109204L6.4517753971643375,4.539037129109204L6.7502453971643375,4.3216771291092035L6.381245397164338,4.3216771291092035L6.268265397164337,3.971687129109204L6.152545397164337,4.3216771291092035L5.784525397164337,4.3216771291092035L6.082775397164338,4.539037129109204L5.967835397164337,4.889237129109204L6.268265397164337,4.674047129109204L6.566795397164337,4.889237129109204ZM9.216575397164338,4.539037129109204L9.330395397164338,4.889237129109204L9.031935397164338,4.674047129109204L8.732485397164337,4.889237129109204L8.846455397164338,4.539037129109204L8.548195397164337,4.3216771291092035L8.917965397164338,4.3216771291092035L9.031935397164338,3.971687129109204L9.145825397164337,4.3216771291092035L9.515945397164337,4.3216771291092035L9.216575397164338,4.539037129109204ZM12.096035397164338,4.889237129109204L11.980935397164338,4.539037129109204L12.279535397164338,4.3216771291092035L11.910535397164338,4.3216771291092035L11.797635397164337,3.971687129109204L11.682535397164337,4.3216771291092035L11.313535397164337,4.3216771291092035L11.612135397164337,4.539037129109204L11.497235397164337,4.889237129109204L11.797635397164337,4.674047129109204L12.096035397164338,4.889237129109204ZM14.562135397164337,3.971687129109204L14.447235397164338,4.3216771291092035L14.078235397164338,4.3216771291092035L14.376635397164337,4.539037129109204L14.262635397164336,4.889237129109204L14.562135397164337,4.674047129109204L14.860735397164337,4.889237129109204L14.746635397164336,4.539037129109204L15.044935397164338,4.3216771291092035L14.675135397164338,4.3216771291092035L14.562135397164337,3.971687129109204ZM5.210975397164337,6.386587129109204L5.097015397164338,6.036247129109204L5.396385397164337,5.8188871291092035L5.026125397164337,5.8188871291092035L4.912515397164337,5.468757129109203L4.798475397164338,5.8188871291092035L4.428565397164338,5.8188871291092035L4.727945397164337,6.036247129109204L4.612855397164338,6.386587129109204L4.912515397164337,6.169227129109204L5.210975397164337,6.386587129109204ZM7.861415397164337,6.066457129109204L7.976435397164337,6.416727129109204L7.675935397164337,6.201387129109204L7.377475397164337,6.416727129109204L7.492415397164337,6.066457129109204L7.1929753971643375,5.849087129109204L7.562045397164337,5.849087129109204L7.675935397164337,5.499027129109204L7.790885397164337,5.849087129109204L8.159885397164338,5.849087129109204L7.861415397164337,6.066457129109204ZM10.626035397164337,6.177507129109204L10.740935397164337,6.527777129109204L10.441535397164337,6.310337129109204L10.142035397164337,6.527777129109204L10.256835397164338,6.177507129109204L9.958595397164338,5.960137129109204L10.327635397164338,5.960137129109204L10.441535397164337,5.609867129109204L10.555535397164338,5.960137129109204L10.925435397164337,5.960137129109204L10.626035397164337,6.177507129109204ZM13.391735397164338,6.177507129109204L13.505535397164337,6.527777129109204L13.207035397164338,6.310337129109204L12.907835397164337,6.527777129109204L13.022435397164337,6.177507129109204L12.723235397164338,5.960137129109204L13.091935397164338,5.960137129109204L13.207035397164338,5.609867129109204L13.321135397164337,5.960137129109204L13.691035397164338,5.960137129109204L13.391735397164338,6.177507129109204ZM3.6870653971643375,7.618427129109204L3.801105397164337,7.968557129109204L3.5018653971643374,7.751257129109204L3.2034753971643375,7.968557129109204L3.3172953971643375,7.618427129109204L3.0179253971643374,7.401057129109204L3.386855397164337,7.401057129109204L3.5018653971643374,7.050787129109204L3.6156953971643375,7.401057129109204L3.9858153971643375,7.401057129109204L3.6870653971643375,7.618427129109204ZM6.566795397164337,7.968557129109204L6.4517753971643375,7.618427129109204L6.7502453971643375,7.401057129109204L6.381245397164338,7.401057129109204L6.268265397164337,7.050787129109204L6.152545397164337,7.401057129109204L5.784525397164337,7.401057129109204L6.082775397164338,7.618427129109204L5.967835397164337,7.968557129109204L6.268265397164337,7.751257129109204L6.566795397164337,7.968557129109204ZM9.216575397164338,7.618427129109204L9.330395397164338,7.968557129109204L9.031935397164338,7.751257129109204L8.732485397164337,7.968557129109204L8.846455397164338,7.618427129109204L8.548195397164337,7.401057129109204L8.917965397164338,7.401057129109204L9.031935397164338,7.050787129109204L9.145825397164337,7.401057129109204L9.515945397164337,7.401057129109204L9.216575397164338,7.618427129109204ZM12.096035397164338,7.968557129109204L11.980935397164338,7.618427129109204L12.279535397164338,7.401057129109204L11.910535397164338,7.401057129109204L11.797635397164337,7.050787129109204L11.682535397164337,7.401057129109204L11.313535397164337,7.401057129109204L11.612135397164337,7.618427129109204L11.497235397164337,7.968557129109204L11.797635397164337,7.751257129109204L12.096035397164338,7.968557129109204ZM14.447235397164338,7.401057129109204L14.562135397164337,7.050787129109204L14.675135397164338,7.401057129109204L15.044935397164338,7.401057129109204L14.746635397164336,7.618427129109204L14.860735397164337,7.968557129109204L14.562135397164337,7.751257129109204L14.262635397164336,7.968557129109204L14.376635397164337,7.618427129109204L14.078235397164338,7.401057129109204L14.447235397164338,7.401057129109204ZM2.303275397164337,9.095887129109204L2.4179453971643374,9.446087129109204L2.118495397164337,9.228867129109204L1.8198953971643372,9.446087129109204L1.9339953971643373,9.095887129109204L1.6346253971643374,8.878527129109203L2.004675397164337,8.878527129109203L2.118495397164337,8.528327129109204L2.2334453971643375,8.878527129109203L2.6024453971643373,8.878527129109203L2.303275397164337,9.095887129109204ZM5.183565397164338,9.500357129109204L5.0696653971643375,9.150157129109203L5.3681353971643375,8.932797129109204L4.9980153971643375,8.932797129109204L4.885165397164338,8.582527129109204L4.770085397164338,8.932797129109204L4.401225397164337,8.932797129109204L4.6996153971643375,9.150157129109203L4.585725397164337,9.500357129109204L4.885165397164338,9.282997129109203L5.183565397164338,9.500357129109204ZM7.948175397164337,9.530637129109204L7.833165397164337,9.180367129109204L8.132535397164338,8.962997129109203L7.762695397164338,8.962997129109203L7.6496453971643374,8.612797129109204L7.534765397164337,8.962997129109203L7.165625397164337,8.962997129109203L7.464095397164337,9.180367129109204L7.349215397164337,9.530637129109204L7.6496453971643374,9.313127129109203L7.948175397164337,9.530637129109204ZM10.599735397164338,9.290997129109204L10.713735397164337,9.641407129109204L10.414135397164337,9.423967129109204L10.115935397164337,9.641407129109204L10.229935397164338,9.290997129109204L9.930525397164338,9.073697129109204L10.299435397164338,9.073697129109204L10.414135397164337,8.723637129109203L10.528235397164337,9.073697129109204L10.898435397164338,9.073697129109204L10.599735397164338,9.290997129109204ZM13.478235397164337,9.641407129109204L13.364135397164338,9.290997129109204L13.662535397164337,9.073697129109204L13.292635397164338,9.073697129109204L13.178935397164338,8.723637129109203L13.064835397164337,9.073697129109204L12.694635397164337,9.073697129109204L12.994235397164337,9.290997129109204L12.880335397164338,9.641407129109204L13.178935397164338,9.423967129109204L13.478235397164337,9.641407129109204ZM3.801105397164337,11.118627129109203L3.6870653971643375,10.766327129109204L3.9858153971643375,10.551027129109205L3.6156953971643375,10.551027129109205L3.5018653971643374,10.198727129109203L3.386855397164337,10.551027129109205L3.0179253971643374,10.551027129109205L3.3172953971643375,10.766327129109204L3.2034753971643375,11.118627129109203L3.5018653971643374,10.901327129109204L3.801105397164337,11.118627129109203ZM6.4517753971643375,10.766327129109204L6.566795397164337,11.118627129109203L6.268265397164337,10.901327129109204L5.967835397164337,11.118627129109203L6.082775397164338,10.766327129109204L5.784525397164337,10.551027129109205L6.152545397164337,10.551027129109205L6.268265397164337,10.198727129109203L6.381245397164338,10.551027129109205L6.7502453971643375,10.551027129109205L6.4517753971643375,10.766327129109204ZM9.216575397164338,10.766327129109204L9.330395397164338,11.118627129109203L9.031935397164338,10.901327129109204L8.732485397164337,11.118627129109203L8.846455397164338,10.766327129109204L8.548195397164337,10.551027129109205L8.917965397164338,10.551027129109205L9.031935397164338,10.198727129109203L9.145825397164337,10.551027129109205L9.515945397164337,10.551027129109205L9.216575397164338,10.766327129109204ZM12.096035397164338,11.118627129109203L11.980935397164338,10.766327129109204L12.279535397164338,10.551027129109205L11.910535397164338,10.551027129109205L11.797635397164337,10.198727129109203L11.682535397164337,10.551027129109205L11.313535397164337,10.551027129109205L11.612135397164337,10.766327129109204L11.497235397164337,11.118627129109203L11.797635397164337,10.901327129109204L12.096035397164338,11.118627129109203ZM14.447235397164338,10.551027129109205L14.562135397164337,10.198727129109203L14.675135397164338,10.551027129109205L15.044935397164338,10.551027129109205L14.746635397164336,10.766327129109204L14.860735397164337,11.118627129109203L14.562135397164337,10.901327129109204L14.262635397164336,11.118627129109203L14.376635397164337,10.766327129109204L14.078235397164338,10.551027129109205L14.447235397164338,10.551027129109205ZM2.0922753971643373,12.305827129109204L2.390595397164337,12.523127129109204L2.2757253971643374,12.173027129109204L2.575375397164337,11.955627129109203L2.205045397164337,11.955627129109203L2.0922753971643373,11.605527129109204L1.9773253971643374,11.955627129109203L1.6082553971643374,11.955627129109203L1.9069353971643372,12.173027129109204L1.7918453971643373,12.523127129109204L2.0922753971643373,12.305827129109204ZM5.155525397164338,12.577327129109204L4.857055397164338,12.360027129109204L4.558525397164337,12.577327129109204L4.672345397164337,12.227127129109205L4.372905397164337,12.009827129109205L4.743095397164337,12.009827129109205L4.857055397164338,11.659627129109204L4.971865397164337,12.009827129109205L5.340935397164337,12.009827129109205L5.041415397164338,12.227127129109205L5.155525397164338,12.577327129109204ZM7.621495397164337,12.392327129109203L7.9208753971643375,12.609827129109204L7.806905397164337,12.257527129109203L8.105585397164337,12.042127129109204L7.7354653971643375,12.042127129109204L7.621495397164337,11.691927129109203L7.5065553971643375,12.042127129109204L7.137555397164338,12.042127129109204L7.4370653971643375,12.257527129109203L7.323035397164337,12.609827129109204L7.621495397164337,12.392327129109203ZM10.685435397164337,12.718727129109205L10.387035397164338,12.501127129109204L10.087735397164337,12.718727129109205L10.201535397164337,12.368327129109204L9.902935397164338,12.151027129109204L10.272035397164338,12.151027129109204L10.387035397164338,11.800827129109203L10.501135397164337,12.151027129109204L10.869935397164337,12.151027129109204L10.571635397164338,12.368327129109204L10.685435397164337,12.718727129109205ZM13.151735397164337,12.501127129109204L13.451135397164338,12.718727129109205L13.336335397164337,12.368327129109204L13.635635397164338,12.151027129109204L13.265635397164337,12.151027129109204L13.151735397164337,11.800827129109203L13.037735397164337,12.151027129109204L12.667835397164337,12.151027129109204L12.967035397164338,12.368327129109204L12.853335397164336,12.718727129109205L13.151735397164337,12.501127129109204ZM1.0358253971643374,14.123527129109204L0.7371503971643374,13.906027129109203L0.43777639716433736,14.123527129109204L0.5517403971643373,13.773227129109204L0.25327639716433736,13.555827129109204L0.6232573971643374,13.555827129109204L0.7371503971643374,13.205527129109203L0.8521653971643374,13.555827129109204L1.2201153971643373,13.555827129109204L0.9219303971643373,13.773227129109204L1.0358253971643374,14.123527129109204ZM3.8010653971643373,14.123527129109204L3.501625397164337,13.906027129109203L3.2034453971643373,14.123527129109204L3.3172653971643373,13.773227129109204L3.017685397164337,13.555827129109204L3.3868253971643374,13.555827129109204L3.501625397164337,13.205527129109203L3.6155153971643372,13.555827129109204L3.9857753971643373,13.555827129109204L3.6870353971643373,13.773227129109204L3.8010653971643373,14.123527129109204ZM6.566795397164337,14.123527129109204L6.268265397164337,13.906027129109203L5.967835397164337,14.123527129109204L6.082775397164338,13.773227129109204L5.784525397164337,13.555827129109204L6.152545397164337,13.555827129109204L6.268265397164337,13.205527129109203L6.381245397164338,13.555827129109204L6.7502453971643375,13.555827129109204L6.4517753971643375,13.773227129109204L6.566795397164337,14.123527129109204ZM9.330395397164338,14.123527129109204L9.031935397164338,13.906027129109203L8.732485397164337,14.123527129109204L8.846455397164338,13.773227129109204L8.548195397164337,13.555827129109204L8.917965397164338,13.555827129109204L9.031935397164338,13.205527129109203L9.145825397164337,13.555827129109204L9.515945397164337,13.555827129109204L9.216575397164338,13.773227129109204L9.330395397164338,14.123527129109204ZM11.797635397164337,13.906027129109203L12.096035397164338,14.123527129109204L11.980935397164338,13.773227129109204L12.279535397164338,13.555827129109204L11.910535397164338,13.555827129109204L11.797635397164337,13.205527129109203L11.682535397164337,13.555827129109204L11.313535397164337,13.555827129109204L11.612135397164337,13.773227129109204L11.497235397164337,14.123527129109204L11.797635397164337,13.906027129109203ZM14.860735397164337,14.123527129109204L14.562135397164337,13.906027129109203L14.262635397164336,14.123527129109204L14.376635397164337,13.773227129109204L14.078235397164338,13.555827129109204L14.447235397164338,13.555827129109204L14.562135397164337,13.205527129109203L14.675135397164338,13.555827129109204L15.045035397164337,13.555827129109204L14.746635397164336,13.773227129109204L14.860735397164337,14.123527129109204Z" fill-rule="evenodd" fill="#093470" fill-opacity="1"/></g></g></svg>